<svg xmlns="http://www.w3.org/2000/svg" width="102" height="37" fill="none"><g fill="#5D5BF3" clip-path="url(#a)"><path d="M95.017 0h-2.974a3.33 3.33 0 0 0-2.527 1.163l-1.384 2.08-.657.988a3.33 3.33 0 0 1 2.512-1.147h7.395q.08-.301.082-.626A2.454 2.454 0 0 0 95.016 0m-5.974 7.406.039-.048 1.509-2.267-.025.026zm-3.065-.932.603-.908.014-.017.012-.015h.001l.303-.457-.023.024-.866 1.303h-.001l-.012.015-.014.017-.093.14.03-.037q.024-.031.046-.065"/><path d="m91.152 4.247-.563.845a3.33 3.33 0 0 1 2.502-1.137H91.44a3 3 0 0 0-.288.292"/><path d="M89.4 3.955c-.991 0-1.877.436-2.49 1.123l-.303.457-.013.015-.014.017-.603.908-.046.066-.031.037a2.46 2.46 0 0 1-1.953.975 2.46 2.46 0 0 1-1.96-.984l.453.68q.037.057.076.11a4.1 4.1 0 0 0 1.132 1.048c.64.4 1.383.628 2.151.628a4.08 4.08 0 0 0 3.243-1.626l1.524-2.29.024-.025.563-.845q.134-.154.288-.292H89.4zM83.665 33.62h-.001q.002.14.014.278h.264a.28.28 0 0 1-.277-.278"/><path d="M91.822 30.535a3.355 3.355 0 0 1-3.344 3.362l-.002.001h-4.798a3.35 3.35 0 0 0 3.332 3.083h1.466a3.34 3.34 0 0 0 3.196-2.362 3.4 3.4 0 0 0 .15-1z"/><path d="m91.897 12.831-2.278 3.421q-.038.058-.072.115a5.6 5.6 0 0 0-.795 2.738v13.908a3.355 3.355 0 0 0 3.07-3.348V14.492q0-.083.003-.164a5.56 5.56 0 0 1 .79-2.574l.045-.07zm1.066 3.946 8.56-12.864c.039-.054.071-.114.106-.172L92.99 16.724zM97.99 3.666l-4.51 6.775-.045.07-.03.054 4.428-6.652q.085-.119.156-.247M92.64 17.863a2.44 2.44 0 0 1 .323-1.086l-.322.483z"/><path d="M99.554 0h-3.691a2.452 2.452 0 0 1 2.126 3.667q-.072.127-.157.247l-4.428 6.652a5.6 5.6 0 0 0-.764 2.684v4.01l.322-.483.028-.052 8.639-12.983A2.43 2.43 0 0 0 102 2.458 2.45 2.45 0 0 0 99.554 0M82.845 33.634v-.014zm0 0v-7.476q0-.082-.005-.165a5.6 5.6 0 0 0-.862-2.688l-2.203-3.308V33.62a3.36 3.36 0 0 0 .367 1.53 3.34 3.34 0 0 0 2.98 1.832h3.068a3.355 3.355 0 0 1-3.345-3.348M84.472 4.76l.012.014.008.01-2.41-3.622-.014-.014 2.403 3.61zm-4.795-1.663L78.39 1.163q-.007-.006-.012-.013l.78 1.173.017.026 2.292 3.444.019.022-1.791-2.692zm5.315 2.437.01.015q.03.039.062.074l.04.039.043.042.092.07q.035.024.07.044l.03.017.01.005.062-.075.046-.066.603-.908q-.023.03-.047.057l-.032.032q-.025.026-.051.05l-.057.044-.035.026q-.035.024-.072.043-.013.01-.027.017l-.052.023-.055.025-.011.004a1 1 0 0 1-.682 0l-.013-.004-.055-.025q-.027-.01-.052-.023l-.028-.017q-.036-.02-.071-.043l-.029-.022-.063-.049q-.022-.02-.043-.042l-.04-.039-.052-.064.498.75"/><path d="m85.339 5.835-.028-.016q-.036-.02-.071-.044l-.03-.022-.062-.049q-.023-.02-.043-.042l-.04-.038q-.032-.036-.061-.075l-.012-.014v-.001l-.499-.75-.008-.01-.011-.014h-.001L82.07 1.148A3.33 3.33 0 0 0 79.557 0h-3.691c1.003 0 1.9.446 2.513 1.15l.012.012 1.287 1.934.018.026 1.791 2.691a2.46 2.46 0 0 0 1.943.963c.746 0 1.456-.35 1.921-.937zm-6.661-2.712-.017-.026-.009-.013h-.112q.076 0 .138.039"/><path d="M77.373 1.163A3.33 3.33 0 0 0 74.847 0h-2.804c-1.35 0-2.446 1.1-2.446 2.458 0 .545.178 1.048.477 1.455l.651.978 1.273 1.914a2.455 2.455 0 0 1 2.095-3.72h4.558z"/><path d="M82.84 18.941a5.6 5.6 0 0 0-.862-2.688L73.792 3.946a2.456 2.456 0 0 0-1.302 3.585l9.49 14.268.073.115a5.6 5.6 0 0 1 .794 2.738v-5.547zM12.046 6.186V3.361A3.354 3.354 0 0 0 8.699 0H5.631a3.354 3.354 0 0 1 3.346 3.36v1.206a2.69 2.69 0 0 0 2.678 2.627c.3 0 .593-.053.87-.148a1.01 1.01 0 0 1-.48-.859m4.061 2.716.008-.008 4.064-4.85-.002.002zm4.271-4.948h-.124l-.075.09a.26.26 0 0 1 .199-.09"/><path d="M17.792 3.954a3.32 3.32 0 0 0-2.463 1.097c.068-.083.065-.08-.057.06l-1.37 1.631c-.206.241-.353.413-.364.424a2.66 2.66 0 0 1-1.883.777 2.69 2.69 0 0 1-2.678-2.628v.872c0 .864.269 1.666.726 2.328a4.07 4.07 0 0 0 3.354 1.77 4.04 4.04 0 0 0 2.864-1.181 3 3 0 0 0 .186-.202l4.069-4.857h.002l.075-.09z"/><path d="M25.1 0h-3.993a3.33 3.33 0 0 0-2.527 1.163l-1.69 2.016-.889 1.061a3.33 3.33 0 0 1 2.521-1.156h8.943q.08-.301.082-.626A2.453 2.453 0 0 0 25.1 0m-8.987 28.087a3 3 0 0 0-.192-.21l-.057-.051a4.04 4.04 0 0 0-2.808-1.13c-1.807 0-3.341 1.188-3.876 2.827-.13.4-.203.828-.203 1.272v2.808a3.35 3.35 0 0 0 2.977-2.296c.11-.333.171-.687.171-1.056q.005-.273.06-.53a2.68 2.68 0 0 1 2.535-1.834c.703 0 1.366.272 1.868.766zm5.888 5.719.077.092h.125a.27.27 0 0 1-.202-.092"/><path d="m31.926 33.068-1.04-1.24-1.522-1.816a2.457 2.457 0 0 1-1.98 3.887h-5.306l1.608 1.92a3.33 3.33 0 0 0 2.527 1.163h3.743a2.453 2.453 0 0 0 2.446-2.459 2.44 2.44 0 0 0-.476-1.455M20.95 19.967l.02.026 7.852 9.371-.01-.017-8.2-9.785.012.014z"/><path d="m28.822 29.364-7.853-9.371-.018-.027-.327-.39-.011-.014-.066-.081a5.6 5.6 0 0 1-1.16-3.395 5.58 5.58 0 0 1 1.102-3.313l-1.6 1.91-.266.318q-.04.046-.077.095a5.58 5.58 0 0 0-1.158 3.395c0 1.217.409 2.418 1.151 3.384l9.322 11.124a2.455 2.455 0 0 0 .96-3.635"/><path d="m21.506 16.348 10.42-12.435.008-.012-10.419 12.433zm6.426-12.453-6.899 8.227-.012.019 6.898-8.228z"/><path d="M29.957 0h-4.008a2.452 2.452 0 0 1 1.99 3.883l-.008.011-.012.019-6.898 8.228a5.58 5.58 0 0 0-1.089 3.293c0 .867.211 1.723.597 2.493.159.317.344.62.562.901q.036.049.077.096l.327.39a2.45 2.45 0 0 1 .01-2.966l.01-.013L31.932 3.9c.293-.405.47-.902.47-1.443A2.45 2.45 0 0 0 29.957 0M4.812 0H3.346A3.354 3.354 0 0 0 0 3.362v3.085a3.354 3.354 0 0 1 3.346-3.362h4.797A3.35 3.35 0 0 0 4.812 0"/><path d="M3.069 33.62V3.967A3.354 3.354 0 0 0 0 7.316v26.303a3.354 3.354 0 0 0 3.346 3.362h3.069A3.354 3.354 0 0 1 3.07 33.62"/><path d="M12.046 33.62v-.885a3.33 3.33 0 0 1-2.527 1.162H3.902a3.35 3.35 0 0 0 3.331 3.084H8.7a3.353 3.353 0 0 0 3.347-3.362m51.809.279H38.7a3.35 3.35 0 0 0 3.333 3.083h21.822a3.354 3.354 0 0 0 3.347-3.362v-3.084a3.353 3.353 0 0 1-3.346 3.363"/><path d="M63.856 25.887h-3.068a3.355 3.355 0 0 1 3.346 3.355v3.772a3.353 3.353 0 0 0 3.068-3.348v-.417a3.354 3.354 0 0 0-3.346-3.362m0-25.887h-3.068a3.355 3.355 0 0 1 3.346 3.355v3.772a3.353 3.353 0 0 0 3.068-3.348v-.416A3.355 3.355 0 0 0 63.856 0M37.868 33.62V3.968a3.354 3.354 0 0 0-3.07 3.348V33.62a3.355 3.355 0 0 0 3.347 3.363h3.068a3.356 3.356 0 0 1-3.345-3.364"/><path d="M59.969 0H38.145a3.355 3.355 0 0 0-3.346 3.363v3.084a3.354 3.354 0 0 1 3.346-3.362H63.3A3.35 3.35 0 0 0 59.969 0m-.558 16.298v.008zm-.277-3.354h-3.069a3.354 3.354 0 0 1 3.346 3.354v3.773a3.354 3.354 0 0 0 3.069-3.349v-.416a3.353 3.353 0 0 0-3.346-3.362m.835 12.943h-13 .82a4.08 4.08 0 0 1-3.67-2.467q-.125.285-.205.588c-.027.107-.045.218-.065.328-.037.208-.064.42-.068.639.051 2.19 1.821 3.961 4.008 3.995h15.512a3.35 3.35 0 0 0-3.332-3.083m-.827-4.933h-.008z"/><path d="M59.142 20.953h-7.354c-1.9 0-3.492 1.315-3.94 3.084h11.286a3.354 3.354 0 0 0 3.346-3.362v-3.083a3.353 3.353 0 0 1-3.338 3.361"/><path d="M48.418 20.953h-.57a4.06 4.06 0 0 0-3.508 2.033 4.1 4.1 0 0 0 2.513 1.907q.012-.277.06-.542c.33-1.925 1.995-3.397 4.005-3.397zm6.828-8.009h-8.277.82a4.08 4.08 0 0 1-3.671-2.467q-.124.285-.204.587c-.028.108-.046.219-.066.328-.037.209-.063.42-.068.64.052 2.19 1.822 3.961 4.008 3.995h10.79a3.35 3.35 0 0 0-3.332-3.083m-6.528-1.85 15.138.001h.001zm15.139-3.082-12.07-.001z"/><path d="m63.857 8.012-12.07-.001c-1.898 0-3.49 1.314-3.938 3.083h.871l15.138.001a3.354 3.354 0 0 0 3.346-3.363V4.65a3.354 3.354 0 0 1-3.346 3.363"/><path d="M48.417 8.01h-.568a4.06 4.06 0 0 0-3.51 2.033 4.1 4.1 0 0 0 2.514 1.907q.012-.277.06-.542c.33-1.926 1.995-3.397 4.005-3.397zM22.591 35.837l-5.785-6.905a2.64 2.64 0 0 0-1.533-.49c-.996 0-1.86.552-2.32 1.366q.05-.008.103-.01c.277 0 .527.113.71.293l4.814 5.746A3.33 3.33 0 0 0 21.107 37h4.011a3.33 3.33 0 0 1-2.527-1.163"/></g><defs><clipPath id="a"><path fill="#fff" d="M0 0h102v37H0z"/></clipPath></defs></svg>